<?xml version="1.0" encoding="UTF-8"?>
<svg version="1.1" xmlns="http://www.w3.org/2000/svg" width="1024" height="1024">
<path d="M0 0 C3.45160383 0.0140125 6.90321011 0.02659888 10.35482097 0.03874874 C22.42763157 0.08149758 34.5003983 0.13067761 46.57316089 0.18527126 C57.78542636 0.23577575 68.99767237 0.27085794 80.21001369 0.29920506 C89.89140201 0.32443756 99.5727056 0.36103233 109.25402087 0.40629077 C115.01356603 0.43298875 120.77303555 0.4550404 126.53263545 0.46530819 C131.93304133 0.47527087 137.33320319 0.49939688 142.73350406 0.53424168 C144.70749485 0.54459067 146.68151945 0.54995034 148.65553737 0.54980946 C167.23090902 0.55390324 181.68570325 3.32823855 195.68961596 16.57638454 C204.82822638 26.51662745 208.08043622 38.5955509 208.04760623 51.83737183 C208.05068518 52.99929445 208.05068518 52.99929445 208.05382633 54.18469027 C208.05948669 56.78374131 208.05804027 59.3827392 208.05662036 61.98179531 C208.05920455 63.86274302 208.06221786 65.74369019 208.06562376 67.62463659 C208.07369073 72.79650449 208.07548317 77.96835852 208.07622123 83.14023197 C208.07807232 88.71711815 208.08561997 94.29399715 208.09235644 99.87087917 C208.10593837 112.06728779 208.11196433 124.26369312 208.1163671 136.46010804 C208.11912989 144.07623918 208.12336732 151.69236905 208.12787127 159.30849934 C208.140064 180.39689617 208.15039852 201.48529216 208.15374637 222.57369232 C208.153968 223.93704314 208.15418978 225.30039396 208.15441172 226.66374477 C208.15463236 228.03035251 208.15485284 229.39696025 208.15507317 230.76356798 C208.15551571 233.50512858 208.15596283 236.24668918 208.15641284 238.98824978 C208.15652223 239.6679957 208.15663162 240.34774163 208.15674433 241.04808592 C208.16037391 263.08246257 208.17629062 285.1168063 208.1996032 307.15117036 C208.22421669 330.45780569 208.2379132 353.76441967 208.23911428 377.07107061 C208.24003075 389.77160661 208.2457758 402.47209951 208.2639339 415.17262363 C208.27934263 425.98823674 208.28445077 436.80379342 208.27619579 447.61941541 C208.272292 453.13591101 208.27320579 458.65229301 208.28725314 464.1687746 C208.30000804 469.22402039 208.29878049 474.27906739 208.28666243 479.33431297 C208.28470819 481.15804251 208.28777116 482.9817862 208.29650679 484.80549587 C208.37765937 502.90069543 206.08365653 518.71735677 193.16617846 532.43575954 C185.85145173 539.27319758 177.47560049 543.29005556 167.91617846 545.99825954 C167.21879565 546.20322048 166.52141284 546.40818142 165.80289721 546.61935329 C164.17761131 547.09163076 162.54744132 547.54705918 160.91617846 547.99825954 C160.91617846 548.32825954 160.91617846 548.65825954 160.91617846 548.99825954 C148.2495118 548.99825954 135.58284513 548.99825954 122.91617846 548.99825954 C122.91617846 548.33825954 122.91617846 547.67825954 122.91617846 546.99825954 C121.92617846 547.65825954 120.93617846 548.31825954 119.91617846 548.99825954 C117.33437576 549.14074314 114.86690494 549.18620023 112.29117846 549.12325954 C111.59766284 549.11423611 110.90414721 549.10521267 110.18961596 549.09591579 C108.43166637 549.07188133 106.67388691 549.03601462 104.91617846 548.99825954 C104.58617846 548.99825954 104.25617846 548.99825954 103.91617846 548.99825954 C89.58284513 548.99825954 75.2495118 548.99825954 60.91617846 548.99825954 C60.91617846 548.33825954 60.91617846 547.67825954 60.91617846 546.99825954 C59.35338226 547.14088366 57.79095151 547.28751466 56.22867846 547.43575954 C55.35856128 547.51697048 54.48844409 547.59818142 53.59195971 547.68185329 C50.97336589 547.94666206 50.97336589 547.94666206 48.66617846 548.49435329 C44.66377687 549.2277479 40.66274733 549.40846057 36.60367846 549.62325954 C35.78705737 549.67482204 34.97043628 549.72638454 34.12906909 549.77950954 C28.89633454 550.0630362 24.09960542 549.75570689 18.91617846 548.99825954 C17.92617846 548.99825954 16.93617846 548.99825954 15.91617846 548.99825954 C13.2495118 548.99825954 10.58284513 548.99825954 7.91617846 548.99825954 C6.86430346 549.18388454 5.81242846 549.36950954 4.72867846 549.56075954 C1.11943706 549.97493479 -1.56259178 549.77121242 -5.08382154 548.99825954 C-5.08382154 548.33825954 -5.08382154 547.67825954 -5.08382154 546.99825954 C-5.74382154 546.99825954 -6.40382154 546.99825954 -7.08382154 546.99825954 C-7.08382154 547.65825954 -7.08382154 548.31825954 -7.08382154 548.99825954 C-10.05382154 548.66825954 -13.02382154 548.33825954 -16.08382154 547.99825954 C-16.08382154 548.32825954 -16.08382154 548.65825954 -16.08382154 548.99825954 C-20.37382154 548.99825954 -24.66382154 548.99825954 -29.08382154 548.99825954 C-29.08382154 548.66825954 -29.08382154 548.33825954 -29.08382154 547.99825954 C-35.02382154 547.99825954 -40.96382154 547.99825954 -47.08382154 547.99825954 C-47.41382154 548.65825954 -47.74382154 549.31825954 -48.08382154 549.99825954 C-49.91975904 550.23654079 -49.91975904 550.23654079 -52.45882154 550.31075954 C-85.73213338 552.85037843 -118.96488078 571.7020263 -142.08382154 594.99825954 C-142.74382154 595.98825954 -143.40382154 596.97825954 -144.08382154 597.99825954 C-145.05319654 598.78200954 -146.02257154 599.56575954 -147.02132154 600.37325954 C-166.43821043 616.7688483 -179.8754861 642.69124053 -188.91609693 665.93234158 C-191.90750863 673.38785998 -196.02061211 679.96441074 -203.61507154 683.33810329 C-210.24607063 685.11126603 -218.12471345 685.26653723 -224.52132154 682.56075954 C-235.43690242 675.72403691 -238.87259831 662.43767712 -243.08382154 650.99825954 C-243.74382154 650.99825954 -244.40382154 650.99825954 -245.08382154 650.99825954 C-245.22497388 649.97538845 -245.22497388 649.97538845 -245.36897779 648.93185329 C-246.24404294 645.34073892 -247.77607038 642.28915916 -249.52132154 639.06075954 C-249.87476636 638.4054324 -250.22821118 637.75010525 -250.59236646 637.0749197 C-257.79087732 624.05350917 -267.23788678 611.627156 -277.90804029 601.25216579 C-280.08382154 598.99825954 -280.08382154 598.99825954 -280.08382154 596.99825954 C-280.6832356 596.73013454 -281.28264966 596.46200954 -281.90022779 596.18575954 C-284.11517366 594.98120937 -285.34060528 593.852843 -287.02132154 591.99825954 C-306.28699518 572.19628235 -333.9141873 559.14777619 -360.27132154 551.99825954 C-361.0244563 551.79047878 -361.77759107 551.58269802 -362.5535481 551.36862087 C-367.83742403 550.02769945 -372.63562349 549.82581411 -378.08382154 549.99825954 C-378.08382154 549.66825954 -378.08382154 549.33825954 -378.08382154 548.99825954 C-382.37382154 548.66825954 -386.66382154 548.33825954 -391.08382154 547.99825954 C-391.08382154 548.32825954 -391.08382154 548.65825954 -391.08382154 548.99825954 C-395.04382154 548.99825954 -399.00382154 548.99825954 -403.08382154 548.99825954 C-403.08382154 548.66825954 -403.08382154 548.33825954 -403.08382154 547.99825954 C-405.72382154 547.99825954 -408.36382154 547.99825954 -411.08382154 547.99825954 C-411.08382154 548.32825954 -411.08382154 548.65825954 -411.08382154 548.99825954 C-424.08382154 548.99825954 -424.08382154 548.99825954 -425.85725904 548.50656033 C-428.21450006 547.96842701 -430.29316003 547.86888956 -432.70882154 547.86544704 C-433.58022779 547.86415798 -434.45163404 547.86286892 -435.34944654 547.86154079 C-436.25179029 547.86540798 -437.15413404 547.86927517 -438.08382154 547.87325954 C-438.98616529 547.86939236 -439.88850904 547.86552517 -440.81819654 547.86154079 C-441.68960279 547.86282986 -442.56100904 547.86411892 -443.45882154 547.86544704 C-444.25030591 547.86657497 -445.04179029 547.8677029 -445.85725904 547.86886501 C-448.05575427 547.99662844 -449.96736562 548.41145583 -452.08382154 548.99825954 C-458.41715487 548.99825954 -464.7504882 548.99825954 -471.08382154 548.99825954 C-471.08382154 548.66825954 -471.08382154 548.33825954 -471.08382154 547.99825954 C-474.05382154 547.99825954 -477.02382154 547.99825954 -480.08382154 547.99825954 C-480.08382154 548.32825954 -480.08382154 548.65825954 -480.08382154 548.99825954 C-490.41715487 548.99825954 -500.7504882 548.99825954 -511.08382154 548.99825954 C-511.08382154 548.66825954 -511.08382154 548.33825954 -511.08382154 547.99825954 C-514.05382154 547.99825954 -517.02382154 547.99825954 -520.08382154 547.99825954 C-520.08382154 548.32825954 -520.08382154 548.65825954 -520.08382154 548.99825954 C-529.65382154 548.99825954 -539.22382154 548.99825954 -549.08382154 548.99825954 C-549.08382154 548.33825954 -549.08382154 547.67825954 -549.08382154 546.99825954 C-552.71382154 547.32825954 -556.34382154 547.65825954 -560.08382154 547.99825954 C-560.08382154 548.32825954 -560.08382154 548.65825954 -560.08382154 548.99825954 C-561.73382154 548.99825954 -563.38382154 548.99825954 -565.08382154 548.99825954 C-565.08382154 548.66825954 -565.08382154 548.33825954 -565.08382154 547.99825954 C-565.74277417 547.98367702 -566.40172681 547.96909451 -567.08064771 547.95407009 C-587.1873744 547.45723925 -604.54269289 546.74439602 -620.01350904 532.27169704 C-625.4146423 526.34064127 -632.08382154 517.34435993 -632.08382154 508.99825954 C-632.74382154 508.66825954 -633.40382154 508.33825954 -634.08382154 507.99825954 C-635.2361338 478.017866 -635.21885839 448.04300238 -635.18735931 418.04491517 C-635.18005949 410.89569289 -635.17869593 403.74647254 -635.1775636 396.59724707 C-635.17539578 383.85257795 -635.16879918 371.10791537 -635.15926099 358.36324978 C-635.15003246 346.01917458 -635.14297799 333.67510118 -635.13875318 321.33102322 C-635.13849045 320.56555862 -635.13822773 319.80009403 -635.13795704 319.01143353 C-635.13665151 315.16939124 -635.13538786 311.32734893 -635.13414514 307.48530662 C-635.12455852 277.99775957 -635.10904273 248.51021938 -635.08848363 219.02267784 C-635.08786693 218.133223 -635.08725023 217.24376817 -635.08661485 216.32736015 C-635.08607277 215.55819564 -635.0855307 214.78903113 -635.0849722 213.99655861 C-635.08289225 210.3844149 -635.08613038 206.77229609 -635.09055066 203.1601553 C-635.11078673 186.0899422 -635.125898 169.01973208 -635.13563371 151.94950962 C-635.14076862 143.18303977 -635.14776169 134.41657902 -635.15926099 125.65011501 C-635.16930424 117.98973804 -635.17569738 110.32936767 -635.17791003 102.66898429 C-635.17920039 98.62461169 -635.18217806 94.580258 -635.18955159 90.53589153 C-635.24009657 61.55837342 -635.24009657 61.55837342 -634.68318677 48.77511501 C-634.63354449 47.55424033 -634.63354449 47.55424033 -634.58289933 46.30870152 C-633.8538684 32.4342572 -627.64227531 21.67592809 -617.77522779 12.14279079 C-607.56915076 4.01051752 -595.954567 0.68965113 -583.11380506 0.72410488 C-581.6495731 0.71624986 -581.6495731 0.71624986 -580.15576071 0.70823616 C-576.89907298 0.69328743 -573.6425431 0.69253211 -570.38582349 0.69186306 C-568.04435963 0.68423772 -565.70289827 0.67580957 -563.36143994 0.66664028 C-557.00739565 0.64471536 -550.6533995 0.63589812 -544.29932165 0.63081384 C-540.32175831 0.62716548 -536.34420747 0.62092267 -532.36664891 0.61381245 C-521.32687975 0.59424871 -510.28711946 0.57784525 -499.24733186 0.57493591 C-498.18888605 0.57465456 -498.18888605 0.57465456 -497.1090575 0.57436752 C-495.67888773 0.5740013 -494.24871795 0.5736376 -492.81854818 0.57327641 C-491.75380991 0.57300219 -491.75380991 0.57300219 -490.66756177 0.57272243 C-489.95685614 0.57254189 -489.24615051 0.57236134 -488.51390835 0.57217532 C-477.02780193 0.56864247 -465.54188403 0.54167498 -454.05584285 0.50422455 C-442.22763841 0.46597158 -430.39952701 0.44677717 -418.57125944 0.4464764 C-411.94470557 0.44589535 -405.31834943 0.43710843 -398.69184804 0.40847874 C-392.44625658 0.38209939 -386.20110593 0.380203 -379.95548368 0.39613438 C-377.67929418 0.39793362 -375.40307817 0.3913984 -373.12694478 0.37531567 C-352.68133211 0.23981168 -334.79966612 3.7739 -316.08382154 11.99825954 C-314.41731634 12.66532974 -312.75069051 13.33209888 -311.08382154 13.99825954 C-309.08382154 14.99825954 -309.08382154 14.99825954 -306.83382154 16.81075954 C-304.01166211 19.05565909 -301.09284856 21.01230171 -298.08382154 22.99825954 C-271.05046576 41.35563167 -251.43324572 69.88570416 -245.08382154 101.99825954 C-244.27359949 106.92288837 -243.95671927 111.63898406 -243.95074296 116.62801075 C-243.94849993 117.36783384 -243.94625691 118.10765694 -243.94394591 118.86989892 C-243.93763803 121.34453499 -243.93836838 123.81911798 -243.9390614 126.29376125 C-243.93592601 128.08767736 -243.93235082 129.88159275 -243.92837399 131.67550719 C-243.91868955 136.60200195 -243.91512773 141.52848511 -243.91253102 146.454988 C-243.90863297 151.76933914 -243.89899592 157.08368008 -243.88997388 162.39802456 C-243.87504126 171.60651727 -243.86349403 180.81500916 -243.85402608 190.02350903 C-243.84014848 203.34726586 -243.81896022 216.67100377 -243.79559755 229.994747 C-243.75768501 251.62449411 -243.72271815 273.25424465 -243.69099927 294.88400173 C-243.68909878 296.17859985 -243.68719828 297.47319797 -243.6852402 298.80702634 C-243.65840489 317.18154418 -243.63453076 335.55606469 -243.6118552 353.93058808 C-243.60945925 355.87157569 -243.60945925 355.87157569 -243.60701489 357.85177517 C-243.6046247 359.79039824 -243.6046247 359.79039824 -243.60218621 361.76818542 C-243.57542284 383.31441093 -243.54102651 404.86061621 -243.50036114 426.40681994 C-243.47558382 439.69754826 -243.45725841 452.98825481 -243.44720554 466.27900256 C-243.4398166 475.38508414 -243.42529342 484.49113649 -243.4051413 493.59719871 C-243.39374704 498.85191498 -243.38561598 504.10658409 -243.38614964 509.36131382 C-243.38657753 514.17264947 -243.37785809 518.98387902 -243.36189985 523.79518743 C-243.3577474 525.5346913 -243.35694865 527.27420714 -243.35986394 529.01371352 C-243.64020075 543.47605323 -243.64020075 543.47605323 -239.08382154 556.99825954 C-238.42382154 557.65825954 -237.76382154 558.31825954 -237.08382154 558.99825954 C-236.67905591 559.52161892 -236.27429029 560.04497829 -235.85725904 560.58419704 C-231.46279359 566.2061668 -226.77892085 568.76655977 -220.08382154 570.99825954 C-209.58625316 571.77444339 -200.46497173 571.22458987 -191.77132154 564.74825954 C-184.2543144 557.05643829 -181.83576972 548.89173653 -181.83048844 538.23098564 C-181.82739117 537.48842953 -181.8242939 536.74587343 -181.82110277 535.98081562 C-181.81316753 533.50278005 -181.81937327 531.0249879 -181.82553601 528.54695034 C-181.82268001 526.74819696 -181.81894126 524.94944481 -181.81439751 523.15069491 C-181.80442622 518.21521925 -181.80678744 513.27981474 -181.81112444 508.34433377 C-181.81360228 503.01829418 -181.80453015 497.69227321 -181.79674268 492.3662405 C-181.78470012 483.13758365 -181.77958986 473.90894407 -181.77886128 464.68027973 C-181.77753497 451.32086343 -181.7624169 437.96148897 -181.74336611 424.60208745 C-181.7125237 402.90545533 -181.68835965 381.20882215 -181.67049146 359.51217556 C-181.66941878 358.21373557 -181.6683461 356.91529559 -181.66724091 355.57750893 C-181.655426 341.09784633 -181.64522016 326.6181833 -181.63680005 312.13851833 C-181.63372623 306.89132594 -181.63063742 301.64413355 -181.62752271 296.39694118 C-181.62675737 295.10220695 -181.62599203 293.80747272 -181.6252035 292.47350412 C-181.61211088 270.86619376 -181.58745513 249.25891365 -181.5537793 227.65162569 C-181.53351438 214.33089104 -181.52319647 201.01022113 -181.52576851 187.68947095 C-181.52680552 178.55578295 -181.51713553 169.42214603 -181.49912948 160.28847586 C-181.48910948 155.02285847 -181.48392947 149.75735416 -181.49189687 144.49173069 C-181.49911543 139.66342913 -181.49240438 134.83534712 -181.47501146 130.00707335 C-181.47115341 128.2681645 -181.47225935 126.52923533 -181.47906835 124.79033553 C-181.58142032 96.37925357 -172.41966148 71.39123694 -155.08382154 48.99825954 C-154.30651685 47.98505642 -153.52921216 46.97185329 -152.72835279 45.92794704 C-148.2790055 40.30691278 -143.69460163 35.45018661 -138.08382154 30.99825954 C-137.13893872 30.22868923 -136.19405591 29.45911892 -135.22054029 28.66622829 C-94.97116019 -3.62111543 -48.94629196 -0.20211229 0 0 Z M-545.08382154 546.99825954 C-545.08382154 547.32825954 -545.08382154 547.65825954 -545.08382154 547.99825954 C-542.77382154 547.99825954 -540.46382154 547.99825954 -538.08382154 547.99825954 C-538.08382154 547.66825954 -538.08382154 547.33825954 -538.08382154 546.99825954 C-540.39382154 546.99825954 -542.70382154 546.99825954 -545.08382154 546.99825954 Z M-529.08382154 546.99825954 C-529.08382154 547.32825954 -529.08382154 547.65825954 -529.08382154 547.99825954 C-526.77382154 547.99825954 -524.46382154 547.99825954 -522.08382154 547.99825954 C-522.08382154 547.66825954 -522.08382154 547.33825954 -522.08382154 546.99825954 C-524.39382154 546.99825954 -526.70382154 546.99825954 -529.08382154 546.99825954 Z M-496.08382154 546.99825954 C-496.08382154 547.32825954 -496.08382154 547.65825954 -496.08382154 547.99825954 C-491.46382154 547.99825954 -486.84382154 547.99825954 -482.08382154 547.99825954 C-482.08382154 547.66825954 -482.08382154 547.33825954 -482.08382154 546.99825954 C-486.70382154 546.99825954 -491.32382154 546.99825954 -496.08382154 546.99825954 Z M-465.08382154 546.99825954 C-461.08382154 547.99825954 -461.08382154 547.99825954 -461.08382154 547.99825954 Z M38.91617846 546.99825954 C38.91617846 547.32825954 38.91617846 547.65825954 38.91617846 547.99825954 C40.56617846 547.99825954 42.21617846 547.99825954 43.91617846 547.99825954 C43.91617846 547.66825954 43.91617846 547.33825954 43.91617846 546.99825954 C42.26617846 546.99825954 40.61617846 546.99825954 38.91617846 546.99825954 Z M62.91617846 546.99825954 C62.91617846 547.32825954 62.91617846 547.65825954 62.91617846 547.99825954 C64.89617846 547.99825954 66.87617846 547.99825954 68.91617846 547.99825954 C68.91617846 547.66825954 68.91617846 547.33825954 68.91617846 546.99825954 C66.93617846 546.99825954 64.95617846 546.99825954 62.91617846 546.99825954 Z M86.91617846 546.99825954 C90.91617846 547.99825954 90.91617846 547.99825954 90.91617846 547.99825954 Z " fill="#0C4177" transform="translate(725.0838215351105,186.00174045562744)"/>
<path d="M0 0 C29.44351132 4.12844304 56.70247837 24.04432326 77.32128906 44.35205078 C78.74648175 45.75112738 80.1950606 47.12631818 81.6484375 48.49609375 C100.27735129 66.30794992 113.3735441 90.16311239 122.81860352 113.86962891 C125.43017587 120.26409107 127.90162724 125.00458059 133.875 128.8515625 C137.43407828 130.15952377 140.21418951 130.39990665 144 130.375 C145.7634375 130.38660156 145.7634375 130.38660156 147.5625 130.3984375 C153.86112759 129.6683693 157.96848417 126.77416349 162 122 C164.80330241 117.11770022 166.91461721 111.89402333 169.04296875 106.69311523 C175.46734311 91.07428994 183.48661209 77.21737078 194 64 C194.73734375 63.04738281 195.4746875 62.09476563 196.234375 61.11328125 C201.57212016 54.28525323 201.57212016 54.28525323 205 52 C203.36427401 55.72483256 201.02385949 58.63770839 198.5 61.8125 C185.76333667 78.1500196 175.84613657 95.48586283 168.26928711 114.78173828 C165.22417567 122.27950498 161.12593481 128.93828665 153.46875 132.33984375 C146.8377509 134.11300648 138.95910808 134.26827769 132.5625 131.5625 C121.64691912 124.72577737 118.21122323 111.43941758 114 100 C113.34 100 112.68 100 112 100 C111.90589844 99.31808594 111.81179688 98.63617187 111.71484375 97.93359375 C110.8397786 94.34247937 109.30775116 91.29089961 107.5625 88.0625 C107.20905518 87.40717285 106.85561035 86.7518457 106.49145508 86.07666016 C99.29294421 73.05524962 89.84593476 60.62889645 79.17578125 50.25390625 C77 48 77 48 77 46 C76.40058594 45.731875 75.80117188 45.46375 75.18359375 45.1875 C72.96864788 43.98294983 71.74321625 42.85458345 70.0625 41 C51.77411674 22.20251828 25.16359601 8.69676345 0 2 C0 1.34 0 0.68 0 0 Z " fill="#082A52" transform="translate(368,737)"/>
<path d="M0 0 C66 0 132 0 200 0 C199.34 0.99 198.68 1.98 198 3 C195.1796875 3.29296875 195.1796875 3.29296875 191.875 3.1875 C190.23144531 3.14689453 190.23144531 3.14689453 188.5546875 3.10546875 C187.71164062 3.07066406 186.86859375 3.03585937 186 3 C186 2.67 186 2.34 186 2 C183.36 2 180.72 2 178 2 C178 2.33 178 2.66 178 3 C165 3 165 3 163.2265625 2.50830078 C160.86932148 1.97016747 158.79066151 1.87063001 156.375 1.8671875 C155.50359375 1.86589844 154.6321875 1.86460937 153.734375 1.86328125 C152.83203125 1.86714844 151.9296875 1.87101563 151 1.875 C150.09765625 1.87113281 149.1953125 1.86726562 148.265625 1.86328125 C146.95851563 1.86521484 146.95851563 1.86521484 145.625 1.8671875 C144.83351563 1.86831543 144.04203125 1.86944336 143.2265625 1.87060547 C141.02806727 1.9983689 139.11645591 2.41319628 137 3 C130.66666667 3 124.33333333 3 118 3 C118 2.67 118 2.34 118 2 C115.03 2 112.06 2 109 2 C109 2.33 109 2.66 109 3 C98.66666667 3 88.33333333 3 78 3 C78 2.67 78 2.34 78 2 C75.03 2 72.06 2 69 2 C69 2.33 69 2.66 69 3 C59.43 3 49.86 3 40 3 C40 2.34 40 1.68 40 1 C36.37 1.33 32.74 1.66 29 2 C29 2.33 29 2.66 29 3 C27.35 3 25.7 3 24 3 C24 2.67 24 2.34 24 2 C16.08 1.67 8.16 1.34 0 1 C0 0.67 0 0.34 0 0 Z M44 1 C44 1.33 44 1.66 44 2 C46.31 2 48.62 2 51 2 C51 1.67 51 1.34 51 1 C48.69 1 46.38 1 44 1 Z M60 1 C60 1.33 60 1.66 60 2 C62.31 2 64.62 2 67 2 C67 1.67 67 1.34 67 1 C64.69 1 62.38 1 60 1 Z M93 1 C93 1.33 93 1.66 93 2 C97.62 2 102.24 2 107 2 C107 1.67 107 1.34 107 1 C102.38 1 97.76 1 93 1 Z M124 1 C128 2 128 2 128 2 Z " fill="#15477B" transform="translate(136,732)"/>
<path d="M0 0 C1.00329392 2.61464475 1.0830706 3.76469596 0.13671875 6.4453125 C-7.30779625 20.21064212 -17.81584497 28.50413138 -32.57190216 33.35207808 C-36.26490845 34.33753249 -39.75805705 34.40565557 -43.56117249 34.36076355 C-44.37332212 34.36332682 -45.18547176 34.3658901 -46.022232 34.36853105 C-48.716934 34.37343384 -51.41106337 34.35703461 -54.10571289 34.34057617 C-56.04790229 34.33972914 -57.99009265 34.34020653 -59.93228149 34.34190369 C-65.18579811 34.34276209 -70.43910795 34.32516137 -75.69257665 34.30418181 C-81.18985134 34.28538919 -86.68713112 34.28366253 -92.18443298 34.28010559 C-102.58584842 34.27079273 -112.98716891 34.24618918 -123.38854259 34.21605712 C-135.23373626 34.18248952 -147.07893453 34.16602116 -158.92416394 34.15097082 C-183.28282853 34.11963898 -207.64140894 34.06689321 -232 34 C-232 33.67 -232 33.34 -232 33 C-231.02246671 32.99761165 -230.04493341 32.99522329 -229.0377779 32.99276257 C-205.2159429 32.93388169 -181.39420834 32.85794591 -157.57248402 32.76428509 C-146.05231963 32.71938273 -134.53218578 32.67995526 -123.01196289 32.65356445 C-112.96707649 32.63053933 -102.92228717 32.59709097 -92.87747782 32.55129844 C-87.56234004 32.52742708 -82.24729803 32.50865846 -76.93210793 32.50238609 C-71.92111903 32.49630765 -66.91037499 32.47620871 -61.89947701 32.44572449 C-60.06825211 32.4369883 -58.23699515 32.43321243 -56.40575027 32.43499184 C-38.69579535 32.44675871 -24.3548043 30.30765424 -10.81640625 17.91796875 C-5.8714698 12.69654122 -2.55577329 6.67340803 0 0 Z " fill="#000C26" transform="translate(928,698)"/>
<path d="M0 0 C0.33 0 0.66 0 1 0 C1.00808685 0.81860001 1.01617371 1.63720001 1.02450562 2.48060608 C1.10300974 10.26090355 1.19045954 18.0410283 1.28752708 25.82111454 C1.33710571 29.81926691 1.38343301 33.81739764 1.421875 37.81567383 C1.45922105 41.68672934 1.50570118 45.55758445 1.55806351 49.42846489 C1.57634961 50.89251566 1.59154842 52.35660894 1.60334396 53.82072639 C1.7679175 73.57409983 3.45029116 90.70660471 17.58203125 105.67578125 C24.21294485 111.91948822 33.17496123 115.99430937 42 118 C42 118.33 42 118.66 42 119 C32.23690723 119.59621941 23.43146614 114.36763227 16.0625 108.25 C9.69265935 102.14112117 4.94109875 94.30427881 2 86 C2 85.01 2 84.02 2 83 C1.34 82.67 0.68 82.34 0 82 C-0.68432063 62.33306195 -1.10617405 42.67953684 -1.125 23 C-1.12749756 22.07632629 -1.12999512 21.15265259 -1.13256836 20.20098877 C-1.13843092 17.57145382 -1.13699189 14.94203608 -1.1328125 12.3125 C-1.13479645 11.52861908 -1.1367804 10.74473816 -1.13882446 9.93710327 C-1.12388062 6.45257698 -0.93360022 3.35236559 0 0 Z " fill="#092B53" transform="translate(91,612)"/>
<path d="M0 0 C-2.54710596 1.69807064 -4.65681369 2.75753258 -7.46484375 3.8828125 C-17.73991681 8.08329031 -27.14313304 12.21198898 -36 19 C-36.85464844 19.64710938 -37.70929687 20.29421875 -38.58984375 20.9609375 C-41.10677426 22.9232901 -43.5586846 24.94456994 -46 27 C-46.79921875 27.65226562 -47.5984375 28.30453125 -48.421875 28.9765625 C-64.86242883 42.9562691 -77.34926355 62.53336906 -84 83 C-84.33 83 -84.66 83 -85 83 C-84.52502911 76.9792423 -83.24286152 72.57146966 -80.4375 67.25 C-80.08107422 66.55825684 -79.72464844 65.86651367 -79.35742188 65.15380859 C-73.99260095 54.94509179 -67.32348305 45.87741538 -60 37 C-59.33355469 36.14664063 -58.66710937 35.29328125 -57.98046875 34.4140625 C-46.77031382 20.7496133 -18.78729679 -1.38246146 0 0 Z " fill="#082B54" transform="translate(635,192)"/>
<path d="M0 0 C5.78273737 0.55146635 10.49867238 2.2048689 15.8125 4.5 C16.57498047 4.82097656 17.33746094 5.14195312 18.12304688 5.47265625 C25.48221931 8.58289889 25.48221931 8.58289889 28.25 10.8125 C31.07215943 13.05739955 33.99097298 15.01404216 37 17 C49.91903099 25.77284571 62.82074797 37.64055502 71 51 C70.67 51.99 70.34 52.98 70 54 C69.45214844 53.23558594 68.90429688 52.47117188 68.33984375 51.68359375 C58.76770764 38.63255669 47.60830637 26.87409135 34 18 C33.1440625 17.41089844 32.288125 16.82179687 31.40625 16.21484375 C21.7134189 9.72919941 11.00740103 4.81889424 0 1 C0 0.67 0 0.34 0 0 Z " fill="#092C57" transform="translate(390,192)"/>
<path d="M0 0 C0 0.66 0 1.32 0 2 C-6.06696699 2.77040851 -11.88514973 3.09706112 -18 3 C-18.33 3.66 -18.66 4.32 -19 5 C-20.8359375 5.23828125 -20.8359375 5.23828125 -23.375 5.3125 C-36.48712438 6.31329604 -49.20027647 10.69429315 -61.21313477 15.85205078 C-64.95625092 17.41873675 -67.1224251 18.26669228 -71 17 C-65.15430834 13.91834058 -59.33795513 11.55572243 -53.0625 9.5 C-51.6854187 9.04717651 -51.6854187 9.04717651 -50.28051758 8.58520508 C-34.03758937 3.34623135 -17.17752271 -0.61348295 0 0 Z " fill="#092C55" transform="translate(696,731)"/>
<path d="M0 0 C-0.33 0.66 -0.66 1.32 -1 2 C-2.8984375 2.60546875 -2.8984375 2.60546875 -5.375 3.1875 C-16.37526842 6.33493016 -24.81210336 13.0783375 -30.6875 22.7890625 C-36.77317646 34.11193168 -37.35502067 45.42290297 -38 58 C-38.33 58 -38.66 58 -39 58 C-39.68559773 39.23571739 -38.03523907 25.71618139 -25 11.375 C-18.44038004 5.03811756 -9.34618174 -0.66657138 0 0 Z " fill="#082951" transform="translate(130,189)"/>
<path d="M0 0 C3.21676586 1.60838293 3.64670854 4.78593279 5 8 C5.66 8.66 6.32 9.32 7 10 C7.40476562 10.52335938 7.80953125 11.04671875 8.2265625 11.5859375 C12.62102794 17.20790726 17.30490068 19.76830023 24 22 C25.33363703 22.14403348 26.67218046 22.24590423 28.01171875 22.31640625 C28.76904297 22.35830078 29.52636719 22.40019531 30.30664062 22.44335938 C31.48516602 22.50233398 31.48516602 22.50233398 32.6875 22.5625 C33.48478516 22.60568359 34.28207031 22.64886719 35.10351562 22.69335938 C37.06881447 22.79927368 39.03438496 22.90012551 41 23 C38.19411938 25.80588062 36.35394546 25.29982542 32.4375 25.3125 C21.82931092 25.11765571 14.67414168 22.47256947 7 15 C3.17284317 10.38655099 0.31523995 6.14717908 0 0 Z " fill="#082A54" transform="translate(481,735)"/>
<path d="M0 0 C1.00329392 2.61464475 1.0830706 3.76469596 0.13671875 6.4453125 C-7.29295737 20.18320419 -18.12988813 29.00184607 -33.05078125 33.609375 C-35.59067278 34.1183713 -37.56805329 33.86294883 -40 33 C-40 32.67 -40 32.34 -40 32 C-39.17757812 31.85304688 -38.35515625 31.70609375 -37.5078125 31.5546875 C-24.38304672 28.91760985 -13.40391089 22.66699266 -5.6875 11.5 C-3.35548054 7.79545682 -1.5640442 4.08389319 0 0 Z " fill="#07274D" transform="translate(928,698)"/>
<path d="M0 0 C3.83024646 3.35146565 5.81194981 7.00122011 8 11.5 C8.34740234 12.20761475 8.69480469 12.91522949 9.05273438 13.64428711 C12.93231571 21.71006772 16.82958919 29.87451891 16 39 C13.57651156 36.57651156 13.53114976 35.32695654 12.875 32 C11.50704529 26.18971815 9.42280458 20.93129393 7 15.5 C6.65565918 14.72269531 6.31131836 13.94539063 5.95654297 13.14453125 C4.25617311 9.40974665 2.47669197 6.28161687 0 3 C0 2.01 0 1.02 0 0 Z " fill="#072952" transform="translate(462,247)"/>
<path d="M0 0 C0 0.66 0 1.32 0 2 C-0.77601563 2.38929688 -1.55203125 2.77859375 -2.3515625 3.1796875 C-13.04940201 8.72009603 -22.64315275 15.40629001 -32 23 C-32.66 22.67 -33.32 22.34 -34 22 C-26.54867147 14.59006774 -17.98510321 9.3153883 -9 4 C-8.02015137 3.4131543 -8.02015137 3.4131543 -7.02050781 2.81445312 C-2.23989455 0 -2.23989455 0 0 0 Z " fill="#082850" transform="translate(623,750)"/>
<path d="M0 0 C6.77033438 2.85066711 10.65969376 9.65322981 13.4375 16.1875 C14.7982427 19.89914285 15.41991888 23.01077068 15 27 C13.32580441 23.81141841 12.04347219 20.54621611 10.75 17.1875 C8.54049633 11.7857582 5.95832772 8.23449012 2 4 C2 3.34 2 2.68 2 2 C1.34 2 0.68 2 0 2 C0 1.34 0 0.68 0 0 Z " fill="#082950" transform="translate(916,200)"/>
<path d="M0 0 C1.12864861 3.38594583 1.00116807 3.72345148 -0.5 6.75 C-4.2473739 13.75540001 -9.82677986 18.68928301 -17 22 C-17.99 21.67 -18.98 21.34 -20 21 C-19.40832031 20.62488281 -18.81664062 20.24976563 -18.20703125 19.86328125 C-10.05835185 14.58591466 -4.1345512 8.95819426 0 0 Z " fill="#072850" transform="translate(543,736)"/>
<path d="M0 0 C9.52019246 0.61420597 19.69141221 3.48759915 27 10 C27 10.99 27 11.98 27 13 C26.3915625 12.54109375 25.783125 12.0821875 25.15625 11.609375 C17.14777025 6.00343917 9.42114827 3.90314288 0 2 C0 1.34 0 0.68 0 0 Z " fill="#07284E" transform="translate(887,187)"/>
<path d="M0 0 C4.64439825 3.56430564 7.93315626 6.98152843 11 12 C10.67 12.99 10.34 13.98 10 15 C8.32742872 12.87941855 6.66184582 10.75395924 5 8.625 C4.28457031 7.72007812 4.28457031 7.72007812 3.5546875 6.796875 C0 2.2265625 0 2.2265625 0 0 Z " fill="#062751" transform="translate(450,231)"/>
<path d="M0 0 C0.33 0.99 0.66 1.98 1 3 C-1.06266371 6.09399556 -3.00936698 7.83179106 -6 10 C-6.66 10 -7.32 10 -8 10 C-6.34908222 5.70761377 -3.26245434 3.1206085 0 0 Z " fill="#0B2E57" transform="translate(582,778)"/>
<path d="M0 0 C3.96 0 7.92 0 12 0 C12 0.33 12 0.66 12 1 C8.04 1 4.08 1 0 1 C0 0.67 0 0.34 0 0 Z " fill="#164679" transform="translate(278,734)"/>
<path d="M0 0 C1.65 0 3.3 0 5 0 C5 0.33 5 0.66 5 1 C3.35 1 1.7 1 0 1 C0 0.67 0 0.34 0 0 Z " fill="#164578" transform="translate(248,734)"/>
<path d="M0 0 C1.65 0 3.3 0 5 0 C5 0.33 5 0.66 5 1 C3.35 1 1.7 1 0 1 C0 0.67 0 0.34 0 0 Z " fill="#154677" transform="translate(144,734)"/>
<path d="M0 0 C4 1 4 1 4 1 Z " fill="#154679" transform="translate(644,743)"/>
<path d="M0 0 C4 1 4 1 4 1 Z " fill="#164678" transform="translate(150,734)"/>
<path d="M0 0 C0.99 0.33 1.98 0.66 3 1 C2.01 1 1.02 1 0 1 C0 0.67 0 0.34 0 0 Z " fill="#154372" transform="translate(889,733)"/>
<path d="M0 0 C3 1 3 1 3 1 Z " fill="#164679" transform="translate(685,735)"/>
<path d="M0 0 C3 1 3 1 3 1 Z " fill="#164678" transform="translate(778,734)"/>
<path d="M0 0 C3 1 3 1 3 1 Z " fill="#164679" transform="translate(210,734)"/>
<path d="M0 0 C3 1 3 1 3 1 Z " fill="#174679" transform="translate(206,734)"/>
<path d="M0 0 C3 1 3 1 3 1 Z " fill="#154676" transform="translate(138,734)"/>
<path d="" fill="#14477C" transform="translate(0,0)"/>
<path d="" fill="#15467B" transform="translate(0,0)"/>
<path d="M0 0 C0.66 0 1.32 0 2 0 C1.67 0.66 1.34 1.32 1 2 C0.67 1.34 0.34 0.68 0 0 Z " fill="#154475" transform="translate(854,184)"/>
<path d="M0 0 C2 1 2 1 2 1 Z " fill="#12406F" transform="translate(496,867)"/>
<path d="M0 0 C2 1 2 1 2 1 Z " fill="#15477B" transform="translate(395,750)"/>
<path d="M0 0 C2 1 2 1 2 1 Z " fill="#15497E" transform="translate(484,737)"/>
<path d="" fill="#154676" transform="translate(0,0)"/>
<path d="M0 0 C2 1 2 1 2 1 Z " fill="#17477B" transform="translate(342,735)"/>
<path d="" fill="#17487C" transform="translate(0,0)"/>
<path d="M0 0 C2 1 2 1 2 1 Z " fill="#164679" transform="translate(712,734)"/>
<path d="M0 0 C2 1 2 1 2 1 Z " fill="#164879" transform="translate(315,734)"/>
<path d="M0 0 C2 1 2 1 2 1 Z " fill="#164779" transform="translate(291,734)"/>
<path d="M0 0 C2 1 2 1 2 1 Z " fill="#174678" transform="translate(171,734)"/>
<path d="M0 0 C2 1 2 1 2 1 Z " fill="#164779" transform="translate(155,734)"/>
<path d="M0 0 C2 1 2 1 2 1 Z " fill="#164676" transform="translate(130,733)"/>
<path d="" fill="#14487E" transform="translate(0,0)"/>
<path d="" fill="#15487E" transform="translate(0,0)"/>
<path d="" fill="#15477D" transform="translate(0,0)"/>
<path d="" fill="#13487D" transform="translate(0,0)"/>
<path d="" fill="#15467C" transform="translate(0,0)"/>
<path d="" fill="#16477C" transform="translate(0,0)"/>
<path d="" fill="#15477C" transform="translate(0,0)"/>
<path d="" fill="#15477B" transform="translate(0,0)"/>
<path d="" fill="#15487E" transform="translate(0,0)"/>
<path d="" fill="#15477C" transform="translate(0,0)"/>
<path d="" fill="#14467D" transform="translate(0,0)"/>
<path d="" fill="#14477C" transform="translate(0,0)"/>
<path d="" fill="#16487E" transform="translate(0,0)"/>
<path d="" fill="#144678" transform="translate(0,0)"/>
<path d="M0 0 C2 1 2 1 2 1 Z " fill="#144578" transform="translate(595,208)"/>
<path d="M0 0 C2 1 2 1 2 1 Z " fill="#144473" transform="translate(886,185)"/>
<path d="M0 0 C2 1 2 1 2 1 Z " fill="#144777" transform="translate(677,185)"/>
<path d="M0 0 C2 1 2 1 2 1 Z " fill="#164779" transform="translate(285,185)"/>
<path d="M0 0 C2 1 2 1 2 1 Z " fill="#164979" transform="translate(198,185)"/>
<path d="M0 0 C2 1 2 1 2 1 Z " fill="#164578" transform="translate(150,185)"/>
<path d="M0 0 C2 1 2 1 2 1 Z " fill="#144373" transform="translate(816,184)"/>
<path d="" fill="#000000" transform="translate(0,0)"/>
<path d="" fill="#153E70" transform="translate(0,0)"/>
<path d="" fill="#123B6B" transform="translate(0,0)"/>
<path d="" fill="#13416C" transform="translate(0,0)"/>
<path d="" fill="#15406D" transform="translate(0,0)"/>
<path d="" fill="#143F6D" transform="translate(0,0)"/>
<path d="" fill="#12406E" transform="translate(0,0)"/>
<path d="" fill="#14406F" transform="translate(0,0)"/>
<path d="" fill="#154576" transform="translate(0,0)"/>
<path d="" fill="#134374" transform="translate(0,0)"/>
<path d="" fill="#144677" transform="translate(0,0)"/>
<path d="" fill="#154475" transform="translate(0,0)"/>
<path d="" fill="#164577" transform="translate(0,0)"/>
<path d="" fill="#134275" transform="translate(0,0)"/>
<path d="" fill="#17477A" transform="translate(0,0)"/>
<path d="" fill="#13467A" transform="translate(0,0)"/>
<path d="" fill="#164377" transform="translate(0,0)"/>
<path d="" fill="#15467D" transform="translate(0,0)"/>
<path d="" fill="#17467B" transform="translate(0,0)"/>
<path d="" fill="#16447C" transform="translate(0,0)"/>
<path d="" fill="#16467A" transform="translate(0,0)"/>
<path d="" fill="#15447B" transform="translate(0,0)"/>
<path d="" fill="#17497C" transform="translate(0,0)"/>
<path d="" fill="#13457C" transform="translate(0,0)"/>
<path d="" fill="#164777" transform="translate(0,0)"/>
<path d="" fill="#164676" transform="translate(0,0)"/>
<path d="" fill="#184879" transform="translate(0,0)"/>
<path d="" fill="#17487E" transform="translate(0,0)"/>
<path d="" fill="#164A7F" transform="translate(0,0)"/>
<path d="" fill="#15477C" transform="translate(0,0)"/>
<path d="" fill="#154579" transform="translate(0,0)"/>
<path d="" fill="#16497C" transform="translate(0,0)"/>
<path d="" fill="#16487C" transform="translate(0,0)"/>
<path d="" fill="#174479" transform="translate(0,0)"/>
<path d="" fill="#16497B" transform="translate(0,0)"/>
<path d="" fill="#15477C" transform="translate(0,0)"/>
<path d="" fill="#174679" transform="translate(0,0)"/>
<path d="" fill="#16487C" transform="translate(0,0)"/>
<path d="" fill="#17497B" transform="translate(0,0)"/>
<path d="" fill="#174576" transform="translate(0,0)"/>
<path d="" fill="#154677" transform="translate(0,0)"/>
<path d="" fill="#174778" transform="translate(0,0)"/>
<path d="" fill="#16457A" transform="translate(0,0)"/>
<path d="" fill="#174779" transform="translate(0,0)"/>
<path d="" fill="#174778" transform="translate(0,0)"/>
<path d="" fill="#154478" transform="translate(0,0)"/>
<path d="" fill="#184678" transform="translate(0,0)"/>
<path d="" fill="#17467A" transform="translate(0,0)"/>
<path d="" fill="#18487A" transform="translate(0,0)"/>
<path d="" fill="#174778" transform="translate(0,0)"/>
<path d="" fill="#164578" transform="translate(0,0)"/>
<path d="" fill="#184879" transform="translate(0,0)"/>
<path d="" fill="#174777" transform="translate(0,0)"/>
<path d="" fill="#174B7E" transform="translate(0,0)"/>
<path d="" fill="#184273" transform="translate(0,0)"/>
<path d="" fill="#154576" transform="translate(0,0)"/>
<path d="" fill="#16477C" transform="translate(0,0)"/>
<path d="" fill="#174775" transform="translate(0,0)"/>
<path d="" fill="#154876" transform="translate(0,0)"/>
<path d="" fill="#144877" transform="translate(0,0)"/>
<path d="" fill="#15467B" transform="translate(0,0)"/>
<path d="" fill="#174879" transform="translate(0,0)"/>
<path d="" fill="#17487A" transform="translate(0,0)"/>
<path d="" fill="#154578" transform="translate(0,0)"/>
<path d="" fill="#16487B" transform="translate(0,0)"/>
<path d="" fill="#15497C" transform="translate(0,0)"/>
<path d="" fill="#14487C" transform="translate(0,0)"/>
<path d="" fill="#14467B" transform="translate(0,0)"/>
<path d="" fill="#164A7D" transform="translate(0,0)"/>
<path d="" fill="#17477D" transform="translate(0,0)"/>
<path d="" fill="#16497C" transform="translate(0,0)"/>
<path d="" fill="#174A7E" transform="translate(0,0)"/>
<path d="" fill="#14487D" transform="translate(0,0)"/>
<path d="" fill="#13497E" transform="translate(0,0)"/>
<path d="" fill="#16487D" transform="translate(0,0)"/>
<path d="" fill="#17477A" transform="translate(0,0)"/>
<path d="" fill="#15497C" transform="translate(0,0)"/>
<path d="" fill="#15487E" transform="translate(0,0)"/>
<path d="" fill="#15477B" transform="translate(0,0)"/>
<path d="" fill="#16487F" transform="translate(0,0)"/>
<path d="" fill="#15487C" transform="translate(0,0)"/>
<path d="" fill="#164A7E" transform="translate(0,0)"/>
<path d="" fill="#15467D" transform="translate(0,0)"/>
<path d="" fill="#16487C" transform="translate(0,0)"/>
<path d="" fill="#164A7D" transform="translate(0,0)"/>
<path d="" fill="#16467F" transform="translate(0,0)"/>
<path d="" fill="#16467C" transform="translate(0,0)"/>
<path d="" fill="#16487E" transform="translate(0,0)"/>
<path d="" fill="#164B7F" transform="translate(0,0)"/>
<path d="" fill="#16487C" transform="translate(0,0)"/>
<path d="" fill="#15477D" transform="translate(0,0)"/>
<path d="" fill="#16497C" transform="translate(0,0)"/>
<path d="" fill="#17487C" transform="translate(0,0)"/>
<path d="" fill="#16487E" transform="translate(0,0)"/>
<path d="" fill="#14487F" transform="translate(0,0)"/>
<path d="" fill="#154A7C" transform="translate(0,0)"/>
<path d="" fill="#17497E" transform="translate(0,0)"/>
<path d="" fill="#15477C" transform="translate(0,0)"/>
<path d="" fill="#154A7E" transform="translate(0,0)"/>
<path d="" fill="#16497E" transform="translate(0,0)"/>
<path d="" fill="#16467C" transform="translate(0,0)"/>
<path d="" fill="#16487C" transform="translate(0,0)"/>
<path d="" fill="#16467C" transform="translate(0,0)"/>
<path d="" fill="#14477D" transform="translate(0,0)"/>
<path d="" fill="#16477D" transform="translate(0,0)"/>
<path d="" fill="#14477D" transform="translate(0,0)"/>
<path d="" fill="#15477C" transform="translate(0,0)"/>
<path d="" fill="#15487E" transform="translate(0,0)"/>
<path d="" fill="#15477D" transform="translate(0,0)"/>
<path d="" fill="#17497D" transform="translate(0,0)"/>
<path d="" fill="#16477D" transform="translate(0,0)"/>
<path d="" fill="#17497C" transform="translate(0,0)"/>
<path d="" fill="#16487B" transform="translate(0,0)"/>
<path d="" fill="#16477D" transform="translate(0,0)"/>
<path d="" fill="#18477C" transform="translate(0,0)"/>
<path d="" fill="#154579" transform="translate(0,0)"/>
<path d="" fill="#16467D" transform="translate(0,0)"/>
<path d="" fill="#14467B" transform="translate(0,0)"/>
<path d="" fill="#17477E" transform="translate(0,0)"/>
<path d="" fill="#15487D" transform="translate(0,0)"/>
<path d="" fill="#174A81" transform="translate(0,0)"/>
<path d="" fill="#17477D" transform="translate(0,0)"/>
<path d="" fill="#18487E" transform="translate(0,0)"/>
<path d="" fill="#144779" transform="translate(0,0)"/>
<path d="" fill="#17497A" transform="translate(0,0)"/>
<path d="" fill="#154679" transform="translate(0,0)"/>
<path d="" fill="#17447A" transform="translate(0,0)"/>
<path d="" fill="#154679" transform="translate(0,0)"/>
<path d="" fill="#13467F" transform="translate(0,0)"/>
<path d="" fill="#134578" transform="translate(0,0)"/>
<path d="" fill="#184578" transform="translate(0,0)"/>
<path d="" fill="#164678" transform="translate(0,0)"/>
<path d="" fill="#164476" transform="translate(0,0)"/>
<path d="" fill="#164575" transform="translate(0,0)"/>
<path d="" fill="#164373" transform="translate(0,0)"/>
<path d="" fill="#164679" transform="translate(0,0)"/>
<path d="" fill="#154579" transform="translate(0,0)"/>
<path d="" fill="#13497C" transform="translate(0,0)"/>
<path d="" fill="#154577" transform="translate(0,0)"/>
<path d="" fill="#154577" transform="translate(0,0)"/>
<path d="" fill="#184677" transform="translate(0,0)"/>
<path d="" fill="#154478" transform="translate(0,0)"/>
<path d="" fill="#154779" transform="translate(0,0)"/>
<path d="" fill="#164777" transform="translate(0,0)"/>
<path d="" fill="#164675" transform="translate(0,0)"/>
<path d="" fill="#164576" transform="translate(0,0)"/>
<path d="" fill="#164476" transform="translate(0,0)"/>
<path d="" fill="#154577" transform="translate(0,0)"/>
<path d="" fill="#154578" transform="translate(0,0)"/>
<path d="" fill="#164779" transform="translate(0,0)"/>
<path d="" fill="#17487B" transform="translate(0,0)"/>
<path d="" fill="#174776" transform="translate(0,0)"/>
<path d="" fill="#144778" transform="translate(0,0)"/>
<path d="" fill="#154778" transform="translate(0,0)"/>
<path d="" fill="#15477A" transform="translate(0,0)"/>
<path d="" fill="#154578" transform="translate(0,0)"/>
<path d="" fill="#164779" transform="translate(0,0)"/>
<path d="" fill="#164476" transform="translate(0,0)"/>
<path d="" fill="#154679" transform="translate(0,0)"/>
<path d="" fill="#144677" transform="translate(0,0)"/>
<path d="" fill="#164879" transform="translate(0,0)"/>
<path d="" fill="#164679" transform="translate(0,0)"/>
<path d="" fill="#16487B" transform="translate(0,0)"/>
<path d="" fill="#15487A" transform="translate(0,0)"/>
<path d="" fill="#154576" transform="translate(0,0)"/>
<path d="" fill="#144778" transform="translate(0,0)"/>
<path d="" fill="#124475" transform="translate(0,0)"/>
<path d="" fill="#134678" transform="translate(0,0)"/>
<path d="" fill="#164678" transform="translate(0,0)"/>
<path d="" fill="#144576" transform="translate(0,0)"/>
<path d="" fill="#17477B" transform="translate(0,0)"/>
<path d="" fill="#164778" transform="translate(0,0)"/>
<path d="" fill="#15487C" transform="translate(0,0)"/>
<path d="" fill="#14487B" transform="translate(0,0)"/>
<path d="" fill="#16497C" transform="translate(0,0)"/>
<path d="" fill="#15477A" transform="translate(0,0)"/>
<path d="" fill="#164778" transform="translate(0,0)"/>
<path d="" fill="#16487C" transform="translate(0,0)"/>
<path d="" fill="#16487B" transform="translate(0,0)"/>
<path d="" fill="#134374" transform="translate(0,0)"/>
<path d="" fill="#134574" transform="translate(0,0)"/>
<path d="" fill="#154373" transform="translate(0,0)"/>
<path d="" fill="#164276" transform="translate(0,0)"/>
<path d="" fill="#144374" transform="translate(0,0)"/>
<path d="" fill="#134576" transform="translate(0,0)"/>
<path d="" fill="#154575" transform="translate(0,0)"/>
</svg>
